# xmcd
#
# Track frame offsets:
#	150
#	15872
#	29925
#	46039
#	63027
#	81060
#	98382
#	114217
#	127779
#	143565
#
# Disc length: 2157 seconds
#
# Revision: 0
# Processed by: cddbd v1.5.1PL0 Copyright (c) Steve Scherf et al.
# Submitted via: dBpowerAMP V4.0
#
DISCID=64086b0a
DTITLE=Joe Pearles - Joe Pearles
DYEAR=1999
DGENRE=Christian
TTITLE0=Here I Am
TTITLE1=In My Fathers House
TTITLE2=I Need You More Today
TTITLE3=Lord, I'm Coming Home
TTITLE4=I Thirst
TTITLE5=I Will Love You Still
TTITLE6=Thinking About Home
TTITLE7=Sweeter As the Days Go By
TTITLE8=No One Ever Cared For Me Like Jesus
TTITLE9=Have You Knelt At the Foot Of the Cross
EXTD=
EXTT0=
EXTT1=
EXTT2=
EXTT3=
EXTT4=
EXTT5=
EXTT6=
EXTT7=
EXTT8=
EXTT9=
PLAYORDER=
